# xmcd
#
# Track frame offsets:
#	300
#	17274
#	34704
#	52032
#	69897
#	84414
#	102657
#	119985
#	132013
#
# Disc length: 2010 seconds
#
# Revision: 1
# Processed by: cddbd v1.5.2PL0 Copyright (c) Steve Scherf et al.
# Submitted via: audiograbber 1.83.01
#
DISCID=7507d609
DTITLE=COUNTRY - SS430
DYEAR=1900
DGENRE=COUNTRY
TTITLE0=BRANTLEY GILBERT - BOTTOMS UP
TTITLE1=JERROD NEIMAN - DRINK TO THAT ALL NIGHT
TTITLE2=FRANKIE BALLARD - HELLUVA RIDE
TTITLE3=SCOTT MCCREERY - SEE YOU TONIGHT
TTITLE4=LITTLE BIG TOWN - SOBER
TTITLE5=DIERKS BENTLEY - I HOLD ON
TTITLE6=FLORIDA GEORGIA LINE - THIS IS HOW WE ROLL
TTITLE7=HUNTER HAYES - EVERYBODYS GOT SOMEBODY BUT ME
TTITLE8=ERIC CHURCH - GIVE ME BACK MY HOMETOWN
EXTD=
EXTT0=
EXTT1=
EXTT2=
EXTT3=
EXTT4=
EXTT5=
EXTT6=
EXTT7=
EXTT8=
PLAYORDER=
